<mxfile host="app.diagrams.net" modified="2024-07-10T08:16:03.596Z" agent="Mozilla/5.0 (Windows NT 10.0; Win64; x64) AppleWebKit/537.36 (KHTML, like Gecko) Chrome/126.0.0.0 Safari/537.36" version="24.6.4" etag="_GGl6TDvxS6jD8u9YMLo" type="github">
  <diagram name="第 1 页" id="vYols-gIu0eWoe0QmGzJ">
    <mxGraphModel>
      <root>
        <mxCell id="0" />
        <mxCell id="1" parent="0" />
      </root>
    </mxGraphModel>
  </diagram>
</mxfile>
